<?xml version="1.0" encoding="UTF-8" standalone="no"?>
<!DOCTYPE svg PUBLIC "-//W3C//DTD SVG 1.1//EN"
 "http://www.w3.org/Graphics/SVG/1.1/DTD/svg11.dtd">
<!-- Generated by graphviz version 2.43.0 (0)
 -->
<!-- Title: adc1_Sample_Single_Channel_Temporary Pages: 1 -->
<svg width="543pt" height="38pt"
 viewBox="0.00 0.00 543.00 38.00" xmlns="http://www.w3.org/2000/svg" xmlns:xlink="http://www.w3.org/1999/xlink">
<g id="graph0" class="graph" transform="scale(1 1) rotate(0) translate(4 34)">
<title>adc1_Sample_Single_Channel_Temporary</title>
<!-- Node1 -->
<g id="Node000001" class="node">
<title>Node1</title>
<g id="a_Node000001"><a xlink:title=" ">
<polygon fill="#999999" stroke="#666666" points="535,-30 416,-30 416,0 535,0 535,-30"/>
<text text-anchor="start" x="424" y="-18" font-family="Helvetica,sans-Serif" font-size="10.00">adc1_Sample_Single</text>
<text text-anchor="middle" x="475.5" y="-7" font-family="Helvetica,sans-Serif" font-size="10.00">_Channel_Temporary</text>
</a>
</g>
</g>
<!-- Node2 -->
<g id="Node000002" class="node">
<title>Node2</title>
<g id="a_Node000002"><a xlink:href="eldriver__mc3p_8c.html#aa58bb4d04fd5a5a06abc1e9f53dd5ccd" target="_top" xlink:title=" ">
<polygon fill="white" stroke="#666666" points="380,-24.5 266,-24.5 266,-5.5 380,-5.5 380,-24.5"/>
<text text-anchor="middle" x="323" y="-12.5" font-family="Helvetica,sans-Serif" font-size="10.00">mc3p_adc_calibrate</text>
</a>
</g>
</g>
<!-- Node1&#45;&gt;Node2 -->
<g id="edge1_Node000001_Node000002" class="edge">
<title>Node1&#45;&gt;Node2</title>
<g id="a_edge1_Node000001_Node000002"><a xlink:title=" ">
<path fill="none" stroke="#63b8ff" d="M405.61,-15C397.11,-15 388.51,-15 380.24,-15"/>
<polygon fill="#63b8ff" stroke="#63b8ff" points="405.88,-18.5 415.88,-15 405.88,-11.5 405.88,-18.5"/>
</a>
</g>
</g>
<!-- Node3 -->
<g id="Node000003" class="node">
<title>Node3</title>
<g id="a_Node000003"><a xlink:href="eldriver__mc3p_8c.html#aa0a13dc55dd5d0f95e3c4d2c0d9b16bc" target="_top" xlink:title=" ">
<polygon fill="white" stroke="#666666" points="230,-24.5 143,-24.5 143,-5.5 230,-5.5 230,-24.5"/>
<text text-anchor="middle" x="186.5" y="-12.5" font-family="Helvetica,sans-Serif" font-size="10.00">mc3p_adc_init</text>
</a>
</g>
</g>
<!-- Node2&#45;&gt;Node3 -->
<g id="edge2_Node000002_Node000003" class="edge">
<title>Node2&#45;&gt;Node3</title>
<g id="a_edge2_Node000002_Node000003"><a xlink:title=" ">
<path fill="none" stroke="#63b8ff" d="M255.58,-15C246.89,-15 238.18,-15 230.03,-15"/>
<polygon fill="#63b8ff" stroke="#63b8ff" points="255.74,-18.5 265.74,-15 255.74,-11.5 255.74,-18.5"/>
</a>
</g>
</g>
<!-- Node4 -->
<g id="Node000004" class="node">
<title>Node4</title>
<g id="a_Node000004"><a xlink:href="eldriver__mc3p_8c.html#af936864200e65317ca8fd7c6af2e95ba" target="_top" xlink:title="Initialize MC3P driver and ADC scales.">
<polygon fill="white" stroke="#666666" points="107,-24.5 0,-24.5 0,-5.5 107,-5.5 107,-24.5"/>
<text text-anchor="middle" x="53.5" y="-12.5" font-family="Helvetica,sans-Serif" font-size="10.00">eldriver_mc3p_init</text>
</a>
</g>
</g>
<!-- Node3&#45;&gt;Node4 -->
<g id="edge3_Node000003_Node000004" class="edge">
<title>Node3&#45;&gt;Node4</title>
<g id="a_edge3_Node000003_Node000004"><a xlink:title=" ">
<path fill="none" stroke="#63b8ff" d="M132.9,-15C124.49,-15 115.78,-15 107.36,-15"/>
<polygon fill="#63b8ff" stroke="#63b8ff" points="132.97,-18.5 142.97,-15 132.97,-11.5 132.97,-18.5"/>
</a>
</g>
</g>
</g>
</svg>
