<?xml version="1.0" encoding="UTF-8" standalone="no"?>
<!DOCTYPE svg PUBLIC "-//W3C//DTD SVG 1.1//EN"
 "http://www.w3.org/Graphics/SVG/1.1/DTD/svg11.dtd">
<!-- Generated by graphviz version 2.43.0 (0)
 -->
<!-- Title: platform/stm32f4/eldriver/eldriver_mc3p.c Pages: 1 -->
<svg width="906pt" height="148pt"
 viewBox="0.00 0.00 905.50 148.00" xmlns="http://www.w3.org/2000/svg" xmlns:xlink="http://www.w3.org/1999/xlink">
<g id="graph0" class="graph" transform="scale(1 1) rotate(0) translate(4 144)">
<title>platform/stm32f4/eldriver/eldriver_mc3p.c</title>
<!-- Node1 -->
<g id="Node000001" class="node">
<title>Node1</title>
<g id="a_Node000001"><a xlink:title=" ">
<polygon fill="#999999" stroke="#666666" points="487.5,-140 344.5,-140 344.5,-110 487.5,-110 487.5,-140"/>
<text text-anchor="start" x="352.5" y="-128" font-family="Helvetica,sans-Serif" font-size="10.00">platform/stm32f4/eldriver</text>
<text text-anchor="middle" x="416" y="-117" font-family="Helvetica,sans-Serif" font-size="10.00">/eldriver_mc3p.c</text>
</a>
</g>
</g>
<!-- Node2 -->
<g id="Node000002" class="node">
<title>Node2</title>
<g id="a_Node000002"><a xlink:title=" ">
<polygon fill="#e0e0e0" stroke="#999999" points="112,-19 0,-19 0,0 112,0 112,-19"/>
<text text-anchor="middle" x="56" y="-7" font-family="Helvetica,sans-Serif" font-size="10.00">stm32f4xx_ll_adc.h</text>
</a>
</g>
</g>
<!-- Node1&#45;&gt;Node2 -->
<g id="edge1_Node000001_Node000002" class="edge">
<title>Node1&#45;&gt;Node2</title>
<g id="a_edge1_Node000001_Node000002"><a xlink:title=" ">
<path fill="none" stroke="#63b8ff" d="M344.38,-112.42C299.36,-104.1 240.46,-91.29 190,-74 150.09,-60.32 106.37,-38.14 80.07,-23.94"/>
<polygon fill="#63b8ff" stroke="#63b8ff" points="81.66,-20.82 71.2,-19.1 78.3,-26.96 81.66,-20.82"/>
</a>
</g>
</g>
<!-- Node3 -->
<g id="Node000003" class="node">
<title>Node3</title>
<g id="a_Node000003"><a xlink:title=" ">
<polygon fill="#e0e0e0" stroke="#999999" points="241.5,-19 130.5,-19 130.5,0 241.5,0 241.5,-19"/>
<text text-anchor="middle" x="186" y="-7" font-family="Helvetica,sans-Serif" font-size="10.00">stm32f4xx_ll_tim.h</text>
</a>
</g>
</g>
<!-- Node1&#45;&gt;Node3 -->
<g id="edge2_Node000001_Node000003" class="edge">
<title>Node1&#45;&gt;Node3</title>
<g id="a_edge2_Node000001_Node000003"><a xlink:title=" ">
<path fill="none" stroke="#63b8ff" d="M344.49,-114.81C291.48,-106.61 225.09,-92.96 205,-74 192.85,-62.53 188.37,-43.65 186.77,-29.45"/>
<polygon fill="#63b8ff" stroke="#63b8ff" points="190.24,-29.01 186.01,-19.3 183.26,-29.53 190.24,-29.01"/>
</a>
</g>
</g>
<!-- Node4 -->
<g id="Node000004" class="node">
<title>Node4</title>
<g id="a_Node000004"><a xlink:title=" ">
<polygon fill="#e0e0e0" stroke="#999999" points="503.5,-19 394.5,-19 394.5,0 503.5,0 503.5,-19"/>
<text text-anchor="middle" x="449" y="-7" font-family="Helvetica,sans-Serif" font-size="10.00">stm32f4xx_ll_rcc.h</text>
</a>
</g>
</g>
<!-- Node1&#45;&gt;Node4 -->
<g id="edge3_Node000001_Node000004" class="edge">
<title>Node1&#45;&gt;Node4</title>
<g id="a_edge3_Node000001_Node000004"><a xlink:title=" ">
<path fill="none" stroke="#63b8ff" d="M386.28,-109.76C363.24,-96.68 337.36,-76.17 351,-55 361.16,-39.23 378.43,-28.98 395.66,-22.35"/>
<polygon fill="#63b8ff" stroke="#63b8ff" points="396.9,-25.63 405.19,-19.03 394.59,-19.02 396.9,-25.63"/>
</a>
</g>
</g>
<!-- Node5 -->
<g id="Node000005" class="node">
<title>Node5</title>
<g id="a_Node000005"><a xlink:title=" ">
<polygon fill="#e0e0e0" stroke="#999999" points="472,-74 360,-74 360,-55 472,-55 472,-74"/>
<text text-anchor="middle" x="416" y="-62" font-family="Helvetica,sans-Serif" font-size="10.00">stm32f4xx_ll_bus.h</text>
</a>
</g>
</g>
<!-- Node1&#45;&gt;Node5 -->
<g id="edge4_Node000001_Node000005" class="edge">
<title>Node1&#45;&gt;Node5</title>
<g id="a_edge4_Node000001_Node000005"><a xlink:title=" ">
<path fill="none" stroke="#63b8ff" d="M416,-109.84C416,-102.21 416,-92.7 416,-84.45"/>
<polygon fill="#63b8ff" stroke="#63b8ff" points="419.5,-84.27 416,-74.27 412.5,-84.27 419.5,-84.27"/>
</a>
</g>
</g>
<!-- Node6 -->
<g id="Node000006" class="node">
<title>Node6</title>
<g id="a_Node000006"><a xlink:title=" ">
<polygon fill="#e0e0e0" stroke="#999999" points="606,-74 490,-74 490,-55 606,-55 606,-74"/>
<text text-anchor="middle" x="548" y="-62" font-family="Helvetica,sans-Serif" font-size="10.00">stm32f4xx_ll_gpio.h</text>
</a>
</g>
</g>
<!-- Node1&#45;&gt;Node6 -->
<g id="edge5_Node000001_Node000006" class="edge">
<title>Node1&#45;&gt;Node6</title>
<g id="a_edge5_Node000001_Node000006"><a xlink:title=" ">
<path fill="none" stroke="#63b8ff" d="M447.62,-109.99C469.35,-100.36 497.97,-87.67 519.09,-78.31"/>
<polygon fill="#63b8ff" stroke="#63b8ff" points="520.78,-81.39 528.51,-74.14 517.95,-74.99 520.78,-81.39"/>
</a>
</g>
</g>
<!-- Node7 -->
<g id="Node000007" class="node">
<title>Node7</title>
<g id="a_Node000007"><a xlink:title=" ">
<polygon fill="#e0e0e0" stroke="#999999" points="713.5,-74 624.5,-74 624.5,-55 713.5,-55 713.5,-74"/>
<text text-anchor="middle" x="669" y="-62" font-family="Helvetica,sans-Serif" font-size="10.00">stm32f401xc.h</text>
</a>
</g>
</g>
<!-- Node1&#45;&gt;Node7 -->
<g id="edge6_Node000001_Node000007" class="edge">
<title>Node1&#45;&gt;Node7</title>
<g id="a_edge6_Node000001_Node000007"><a xlink:title=" ">
<path fill="none" stroke="#63b8ff" d="M476.6,-109.99C521.3,-99.65 581.24,-85.79 622.26,-76.31"/>
<polygon fill="#63b8ff" stroke="#63b8ff" points="623.05,-79.72 632.01,-74.05 621.48,-72.9 623.05,-79.72"/>
</a>
</g>
</g>
<!-- Node8 -->
<g id="Node000008" class="node">
<title>Node8</title>
<g id="a_Node000008"><a xlink:href="eldriver__conf_8h.html" target="_top" xlink:title="Global Configuration for STM32F4 eldrivers.">
<polygon fill="white" stroke="#666666" points="303.5,-74 214.5,-74 214.5,-55 303.5,-55 303.5,-74"/>
<text text-anchor="middle" x="259" y="-62" font-family="Helvetica,sans-Serif" font-size="10.00">eldriver_conf.h</text>
</a>
</g>
</g>
<!-- Node1&#45;&gt;Node8 -->
<g id="edge7_Node000001_Node000008" class="edge">
<title>Node1&#45;&gt;Node8</title>
<g id="a_edge7_Node000001_Node000008"><a xlink:title=" ">
<path fill="none" stroke="#63b8ff" d="M378.39,-109.99C351.97,-100.14 316.96,-87.1 291.69,-77.68"/>
<polygon fill="#63b8ff" stroke="#63b8ff" points="292.78,-74.35 282.19,-74.14 290.33,-80.91 292.78,-74.35"/>
</a>
</g>
</g>
<!-- Node10 -->
<g id="Node000010" class="node">
<title>Node10</title>
<g id="a_Node000010"><a xlink:href="eldriver__mc3p_8h.html" target="_top" xlink:title="Header file for 3&#45;Phase Motor Controller (MC3P) Driver.">
<polygon fill="white" stroke="#666666" points="826.5,-74 731.5,-74 731.5,-55 826.5,-55 826.5,-74"/>
<text text-anchor="middle" x="779" y="-62" font-family="Helvetica,sans-Serif" font-size="10.00">eldriver_mc3p.h</text>
</a>
</g>
</g>
<!-- Node1&#45;&gt;Node10 -->
<g id="edge12_Node000001_Node000010" class="edge">
<title>Node1&#45;&gt;Node10</title>
<g id="a_edge12_Node000001_Node000010"><a xlink:title=" ">
<path fill="none" stroke="#63b8ff" d="M487.72,-112.44C556.12,-101.42 657.85,-85.02 721.21,-74.81"/>
<polygon fill="#63b8ff" stroke="#63b8ff" points="722.11,-78.21 731.42,-73.17 720.99,-71.3 722.11,-78.21"/>
</a>
</g>
</g>
<!-- Node12 -->
<g id="Node000012" class="node">
<title>Node12</title>
<g id="a_Node000012"><a xlink:title=" ">
<polygon fill="#e0e0e0" stroke="#999999" points="897.5,-74 844.5,-74 844.5,-55 897.5,-55 897.5,-74"/>
<text text-anchor="middle" x="871" y="-62" font-family="Helvetica,sans-Serif" font-size="10.00">string.h</text>
</a>
</g>
</g>
<!-- Node1&#45;&gt;Node12 -->
<g id="edge14_Node000001_Node000012" class="edge">
<title>Node1&#45;&gt;Node12</title>
<g id="a_edge14_Node000001_Node000012"><a xlink:title=" ">
<path fill="none" stroke="#63b8ff" d="M487.73,-118.1C569.52,-110.77 707.37,-96.63 834.41,-74.11"/>
<polygon fill="#63b8ff" stroke="#63b8ff" points="835.09,-77.54 844.32,-72.33 833.86,-70.65 835.09,-77.54"/>
</a>
</g>
</g>
<!-- Node8&#45;&gt;Node2 -->
<g id="edge8_Node000008_Node000002" class="edge">
<title>Node8&#45;&gt;Node2</title>
<g id="a_edge8_Node000008_Node000002"><a xlink:title=" ">
<path fill="none" stroke="#63b8ff" d="M226.38,-54.98C191.71,-45.93 136.74,-31.58 98.65,-21.64"/>
<polygon fill="#63b8ff" stroke="#63b8ff" points="99.43,-18.22 88.87,-19.08 97.66,-24.99 99.43,-18.22"/>
</a>
</g>
</g>
<!-- Node8&#45;&gt;Node3 -->
<g id="edge10_Node000008_Node000003" class="edge">
<title>Node8&#45;&gt;Node3</title>
<g id="a_edge10_Node000008_Node000003"><a xlink:title=" ">
<path fill="none" stroke="#63b8ff" d="M247.27,-54.98C236.27,-47 219.58,-34.88 206.4,-25.31"/>
<polygon fill="#63b8ff" stroke="#63b8ff" points="208.09,-22.21 197.94,-19.17 203.98,-27.88 208.09,-22.21"/>
</a>
</g>
</g>
<!-- Node8&#45;&gt;Node4 -->
<g id="edge11_Node000008_Node000004" class="edge">
<title>Node8&#45;&gt;Node4</title>
<g id="a_edge11_Node000008_Node000004"><a xlink:title=" ">
<path fill="none" stroke="#63b8ff" d="M289.53,-54.98C321.7,-46.01 372.56,-31.82 408.17,-21.89"/>
<polygon fill="#63b8ff" stroke="#63b8ff" points="409.54,-25.14 418.23,-19.08 407.66,-18.4 409.54,-25.14"/>
</a>
</g>
</g>
<!-- Node9 -->
<g id="Node000009" class="node">
<title>Node9</title>
<g id="a_Node000009"><a xlink:title=" ">
<polygon fill="#e0e0e0" stroke="#999999" points="376,-19 260,-19 260,0 376,0 376,-19"/>
<text text-anchor="middle" x="318" y="-7" font-family="Helvetica,sans-Serif" font-size="10.00">stm32f4xx_ll_dma.h</text>
</a>
</g>
</g>
<!-- Node8&#45;&gt;Node9 -->
<g id="edge9_Node000008_Node000009" class="edge">
<title>Node8&#45;&gt;Node9</title>
<g id="a_edge9_Node000008_Node000009"><a xlink:title=" ">
<path fill="none" stroke="#63b8ff" d="M268.48,-54.98C277.2,-47.15 290.34,-35.34 300.9,-25.86"/>
<polygon fill="#63b8ff" stroke="#63b8ff" points="303.25,-28.46 308.35,-19.17 298.57,-23.25 303.25,-28.46"/>
</a>
</g>
</g>
<!-- Node11 -->
<g id="Node000011" class="node">
<title>Node11</title>
<g id="a_Node000011"><a xlink:title=" ">
<polygon fill="#e0e0e0" stroke="#999999" points="805.5,-19 752.5,-19 752.5,0 805.5,0 805.5,-19"/>
<text text-anchor="middle" x="779" y="-7" font-family="Helvetica,sans-Serif" font-size="10.00">stdint.h</text>
</a>
</g>
</g>
<!-- Node10&#45;&gt;Node11 -->
<g id="edge13_Node000010_Node000011" class="edge">
<title>Node10&#45;&gt;Node11</title>
<g id="a_edge13_Node000010_Node000011"><a xlink:title=" ">
<path fill="none" stroke="#63b8ff" d="M779,-54.75C779,-47.8 779,-37.85 779,-29.13"/>
<polygon fill="#63b8ff" stroke="#63b8ff" points="782.5,-29.09 779,-19.09 775.5,-29.09 782.5,-29.09"/>
</a>
</g>
</g>
</g>
</svg>
