<?xml version="1.0" encoding="UTF-8" standalone="no"?>
<!DOCTYPE svg PUBLIC "-//W3C//DTD SVG 1.1//EN"
 "http://www.w3.org/Graphics/SVG/1.1/DTD/svg11.dtd">
<!-- Generated by graphviz version 2.43.0 (0)
 -->
<!-- Title: eldriver_uart_handle_t Pages: 1 -->
<svg width="272pt" height="93pt"
 viewBox="0.00 0.00 271.50 93.00" xmlns="http://www.w3.org/2000/svg" xmlns:xlink="http://www.w3.org/1999/xlink">
<g id="graph0" class="graph" transform="scale(1 1) rotate(0) translate(4 89)">
<title>eldriver_uart_handle_t</title>
<!-- Node1 -->
<g id="Node000001" class="node">
<title>Node1</title>
<g id="a_Node000001"><a xlink:title="UART Handle structure containing config and status.">
<polygon fill="#999999" stroke="#666666" points="194,-19 68,-19 68,0 194,0 194,-19"/>
<text text-anchor="middle" x="131" y="-7" font-family="Helvetica,sans-Serif" font-size="10.00">eldriver_uart_handle_t</text>
</a>
</g>
</g>
<!-- Node2 -->
<g id="Node000002" class="node">
<title>Node2</title>
<g id="a_Node000002"><a xlink:href="structeldriver__uart__config__t.html" target="_top" xlink:title="UART Configuration structure.">
<polygon fill="white" stroke="#666666" points="122,-85 0,-85 0,-66 122,-66 122,-85"/>
<text text-anchor="middle" x="61" y="-73" font-family="Helvetica,sans-Serif" font-size="10.00">eldriver_uart_config_t</text>
</a>
</g>
</g>
<!-- Node2&#45;&gt;Node1 -->
<g id="edge1_Node000001_Node000002" class="edge">
<title>Node2&#45;&gt;Node1</title>
<g id="a_edge1_Node000001_Node000002"><a xlink:title=" ">
<path fill="none" stroke="#9a32cd" stroke-dasharray="5,2" d="M78.14,-58.83C91.69,-46.44 110.13,-29.59 121.26,-19.41"/>
<polygon fill="#9a32cd" stroke="#9a32cd" points="75.46,-56.54 70.44,-65.87 80.18,-61.7 75.46,-56.54"/>
</a>
</g>
<text text-anchor="middle" x="117.5" y="-40" font-family="Helvetica,sans-Serif" font-size="10.00" fill="grey"> config</text>
</g>
<!-- Node3 -->
<g id="Node000003" class="node">
<title>Node3</title>
<g id="a_Node000003"><a xlink:href="structeldriver__uart__status__t.html" target="_top" xlink:title="UART Status structure to track transmission and errors.">
<polygon fill="white" stroke="#666666" points="263.5,-85 140.5,-85 140.5,-66 263.5,-66 263.5,-85"/>
<text text-anchor="middle" x="202" y="-73" font-family="Helvetica,sans-Serif" font-size="10.00">eldriver_uart_status_t</text>
</a>
</g>
</g>
<!-- Node3&#45;&gt;Node1 -->
<g id="edge2_Node000001_Node000003" class="edge">
<title>Node3&#45;&gt;Node1</title>
<g id="a_edge2_Node000001_Node000003"><a xlink:title=" ">
<path fill="none" stroke="#9a32cd" stroke-dasharray="5,2" d="M184.62,-58.83C170.87,-46.44 152.17,-29.59 140.88,-19.41"/>
<polygon fill="#9a32cd" stroke="#9a32cd" points="182.65,-61.77 192.42,-65.87 187.34,-56.57 182.65,-61.77"/>
</a>
</g>
<text text-anchor="middle" x="187" y="-40" font-family="Helvetica,sans-Serif" font-size="10.00" fill="grey"> status</text>
</g>
</g>
</svg>
