<?xml version="1.0" encoding="UTF-8" standalone="no"?>
<!DOCTYPE svg PUBLIC "-//W3C//DTD SVG 1.1//EN"
 "http://www.w3.org/Graphics/SVG/1.1/DTD/svg11.dtd">
<!-- Generated by graphviz version 2.43.0 (0)
 -->
<!-- Title: platform/stm32f4/eldriver/eldriver_uart.h Pages: 1 -->
<svg width="312pt" height="170pt"
 viewBox="0.00 0.00 312.00 170.00" xmlns="http://www.w3.org/2000/svg" xmlns:xlink="http://www.w3.org/1999/xlink">
<g id="graph0" class="graph" transform="scale(1 1) rotate(0) translate(4 166)">
<title>platform/stm32f4/eldriver/eldriver_uart.h</title>
<!-- Node1 -->
<g id="Node000001" class="node">
<title>Node1</title>
<g id="a_Node000001"><a xlink:title="Header file for UART/Communication Peripheral Driver.">
<polygon fill="#999999" stroke="#666666" points="223,-162 80,-162 80,-132 223,-132 223,-162"/>
<text text-anchor="start" x="88" y="-150" font-family="Helvetica,sans-Serif" font-size="10.00">platform/stm32f4/eldriver</text>
<text text-anchor="middle" x="151.5" y="-139" font-family="Helvetica,sans-Serif" font-size="10.00">/eldriver_uart.h</text>
</a>
</g>
</g>
<!-- Node2 -->
<g id="Node000002" class="node">
<title>Node2</title>
<g id="a_Node000002"><a xlink:href="eldriver__uart_8c.html" target="_top" xlink:title=" ">
<polygon fill="white" stroke="#666666" points="143,-96 0,-96 0,-66 143,-66 143,-96"/>
<text text-anchor="start" x="8" y="-84" font-family="Helvetica,sans-Serif" font-size="10.00">platform/stm32f4/eldriver</text>
<text text-anchor="middle" x="71.5" y="-73" font-family="Helvetica,sans-Serif" font-size="10.00">/eldriver_uart.c</text>
</a>
</g>
</g>
<!-- Node1&#45;&gt;Node2 -->
<g id="edge1_Node000001_Node000002" class="edge">
<title>Node1&#45;&gt;Node2</title>
<g id="a_edge1_Node000001_Node000002"><a xlink:title=" ">
<path fill="none" stroke="#63b8ff" d="M125.85,-125.48C113.89,-115.91 99.97,-104.77 89.2,-96.16"/>
<polygon fill="#63b8ff" stroke="#63b8ff" points="123.75,-128.28 133.75,-131.8 128.12,-122.82 123.75,-128.28"/>
</a>
</g>
</g>
<!-- Node3 -->
<g id="Node000003" class="node">
<title>Node3</title>
<g id="a_Node000003"><a xlink:href="eldriver__usbcdc_8h.html" target="_top" xlink:title="USB CDC (Communication Device Class) Driver.">
<polygon fill="white" stroke="#666666" points="304,-96 161,-96 161,-66 304,-66 304,-96"/>
<text text-anchor="start" x="169" y="-84" font-family="Helvetica,sans-Serif" font-size="10.00">platform/stm32f4/eldriver</text>
<text text-anchor="middle" x="232.5" y="-73" font-family="Helvetica,sans-Serif" font-size="10.00">/eldriver_usbcdc.h</text>
</a>
</g>
</g>
<!-- Node1&#45;&gt;Node3 -->
<g id="edge2_Node000001_Node000003" class="edge">
<title>Node1&#45;&gt;Node3</title>
<g id="a_edge2_Node000001_Node000003"><a xlink:title=" ">
<path fill="none" stroke="#63b8ff" d="M177.47,-125.48C189.58,-115.91 203.68,-104.77 214.57,-96.16"/>
<polygon fill="#63b8ff" stroke="#63b8ff" points="175.15,-122.85 169.48,-131.8 179.49,-128.34 175.15,-122.85"/>
</a>
</g>
</g>
<!-- Node4 -->
<g id="Node000004" class="node">
<title>Node4</title>
<g id="a_Node000004"><a xlink:href="eldriver__usbcdc_8c.html" target="_top" xlink:title=" ">
<polygon fill="white" stroke="#666666" points="304,-30 161,-30 161,0 304,0 304,-30"/>
<text text-anchor="start" x="169" y="-18" font-family="Helvetica,sans-Serif" font-size="10.00">platform/stm32f4/eldriver</text>
<text text-anchor="middle" x="232.5" y="-7" font-family="Helvetica,sans-Serif" font-size="10.00">/eldriver_usbcdc.c</text>
</a>
</g>
</g>
<!-- Node3&#45;&gt;Node4 -->
<g id="edge3_Node000003_Node000004" class="edge">
<title>Node3&#45;&gt;Node4</title>
<g id="a_edge3_Node000003_Node000004"><a xlink:title=" ">
<path fill="none" stroke="#63b8ff" d="M232.5,-55.54C232.5,-46.96 232.5,-37.61 232.5,-30.16"/>
<polygon fill="#63b8ff" stroke="#63b8ff" points="229,-55.8 232.5,-65.8 236,-55.8 229,-55.8"/>
</a>
</g>
</g>
</g>
</svg>
