<?xml version="1.0" encoding="UTF-8" standalone="no"?>
<!DOCTYPE svg PUBLIC "-//W3C//DTD SVG 1.1//EN"
 "http://www.w3.org/Graphics/SVG/1.1/DTD/svg11.dtd">
<!-- Generated by graphviz version 2.43.0 (0)
 -->
<!-- Title: mc3p_adc_calibrate Pages: 1 -->
<svg width="388pt" height="27pt"
 viewBox="0.00 0.00 388.00 27.00" xmlns="http://www.w3.org/2000/svg" xmlns:xlink="http://www.w3.org/1999/xlink">
<g id="graph0" class="graph" transform="scale(1 1) rotate(0) translate(4 23)">
<title>mc3p_adc_calibrate</title>
<!-- Node1 -->
<g id="Node000001" class="node">
<title>Node1</title>
<g id="a_Node000001"><a xlink:title=" ">
<polygon fill="#999999" stroke="#666666" points="380,-19 266,-19 266,0 380,0 380,-19"/>
<text text-anchor="middle" x="323" y="-7" font-family="Helvetica,sans-Serif" font-size="10.00">mc3p_adc_calibrate</text>
</a>
</g>
</g>
<!-- Node2 -->
<g id="Node000002" class="node">
<title>Node2</title>
<g id="a_Node000002"><a xlink:href="eldriver__mc3p_8c.html#aa0a13dc55dd5d0f95e3c4d2c0d9b16bc" target="_top" xlink:title=" ">
<polygon fill="white" stroke="#666666" points="230,-19 143,-19 143,0 230,0 230,-19"/>
<text text-anchor="middle" x="186.5" y="-7" font-family="Helvetica,sans-Serif" font-size="10.00">mc3p_adc_init</text>
</a>
</g>
</g>
<!-- Node1&#45;&gt;Node2 -->
<g id="edge1_Node000001_Node000002" class="edge">
<title>Node1&#45;&gt;Node2</title>
<g id="a_edge1_Node000001_Node000002"><a xlink:title=" ">
<path fill="none" stroke="#63b8ff" d="M255.58,-9.5C246.89,-9.5 238.18,-9.5 230.03,-9.5"/>
<polygon fill="#63b8ff" stroke="#63b8ff" points="255.74,-13 265.74,-9.5 255.74,-6 255.74,-13"/>
</a>
</g>
</g>
<!-- Node3 -->
<g id="Node000003" class="node">
<title>Node3</title>
<g id="a_Node000003"><a xlink:href="eldriver__mc3p_8c.html#af936864200e65317ca8fd7c6af2e95ba" target="_top" xlink:title="Initialize MC3P driver and ADC scales.">
<polygon fill="white" stroke="#666666" points="107,-19 0,-19 0,0 107,0 107,-19"/>
<text text-anchor="middle" x="53.5" y="-7" font-family="Helvetica,sans-Serif" font-size="10.00">eldriver_mc3p_init</text>
</a>
</g>
</g>
<!-- Node2&#45;&gt;Node3 -->
<g id="edge2_Node000002_Node000003" class="edge">
<title>Node2&#45;&gt;Node3</title>
<g id="a_edge2_Node000002_Node000003"><a xlink:title=" ">
<path fill="none" stroke="#63b8ff" d="M132.9,-9.5C124.49,-9.5 115.78,-9.5 107.36,-9.5"/>
<polygon fill="#63b8ff" stroke="#63b8ff" points="132.97,-13 142.97,-9.5 132.97,-6 132.97,-13"/>
</a>
</g>
</g>
</g>
</svg>
