<?xml version="1.0" encoding="UTF-8" standalone="no"?>
<!DOCTYPE svg PUBLIC "-//W3C//DTD SVG 1.1//EN"
 "http://www.w3.org/Graphics/SVG/1.1/DTD/svg11.dtd">
<!-- Generated by graphviz version 2.43.0 (0)
 -->
<!-- Title: platform/stm32f4/eldriver/eldriver_hall.c Pages: 1 -->
<svg width="557pt" height="203pt"
 viewBox="0.00 0.00 556.50 203.00" xmlns="http://www.w3.org/2000/svg" xmlns:xlink="http://www.w3.org/1999/xlink">
<g id="graph0" class="graph" transform="scale(1 1) rotate(0) translate(4 199)">
<title>platform/stm32f4/eldriver/eldriver_hall.c</title>
<!-- Node1 -->
<g id="Node000001" class="node">
<title>Node1</title>
<g id="a_Node000001"><a xlink:title=" ">
<polygon fill="#999999" stroke="#666666" points="287.5,-195 144.5,-195 144.5,-165 287.5,-165 287.5,-195"/>
<text text-anchor="start" x="152.5" y="-183" font-family="Helvetica,sans-Serif" font-size="10.00">platform/stm32f4/eldriver</text>
<text text-anchor="middle" x="216" y="-172" font-family="Helvetica,sans-Serif" font-size="10.00">/eldriver_hall.c</text>
</a>
</g>
</g>
<!-- Node2 -->
<g id="Node000002" class="node">
<title>Node2</title>
<g id="a_Node000002"><a xlink:title=" ">
<polygon fill="#e0e0e0" stroke="#999999" points="112,-19 0,-19 0,0 112,0 112,-19"/>
<text text-anchor="middle" x="56" y="-7" font-family="Helvetica,sans-Serif" font-size="10.00">stm32f4xx_ll_adc.h</text>
</a>
</g>
</g>
<!-- Node1&#45;&gt;Node2 -->
<g id="edge1_Node000001_Node000002" class="edge">
<title>Node1&#45;&gt;Node2</title>
<g id="a_edge1_Node000001_Node000002"><a xlink:title=" ">
<path fill="none" stroke="#63b8ff" d="M186.53,-164.81C170.15,-156 150.1,-143.58 135,-129 103.27,-98.36 77.39,-52.87 64.63,-28.11"/>
<polygon fill="#63b8ff" stroke="#63b8ff" points="67.74,-26.51 60.11,-19.15 61.49,-29.66 67.74,-26.51"/>
</a>
</g>
</g>
<!-- Node3 -->
<g id="Node000003" class="node">
<title>Node3</title>
<g id="a_Node000003"><a xlink:title=" ">
<polygon fill="#e0e0e0" stroke="#999999" points="241.5,-19 130.5,-19 130.5,0 241.5,0 241.5,-19"/>
<text text-anchor="middle" x="186" y="-7" font-family="Helvetica,sans-Serif" font-size="10.00">stm32f4xx_ll_tim.h</text>
</a>
</g>
</g>
<!-- Node1&#45;&gt;Node3 -->
<g id="edge2_Node000001_Node000003" class="edge">
<title>Node1&#45;&gt;Node3</title>
<g id="a_edge2_Node000001_Node000003"><a xlink:title=" ">
<path fill="none" stroke="#63b8ff" d="M183.05,-164.95C168.27,-156.78 152.32,-144.91 144,-129 125.97,-94.53 153.4,-50.62 171.74,-27.12"/>
<polygon fill="#63b8ff" stroke="#63b8ff" points="174.6,-29.14 178.2,-19.18 169.17,-24.72 174.6,-29.14"/>
</a>
</g>
</g>
<!-- Node4 -->
<g id="Node000004" class="node">
<title>Node4</title>
<g id="a_Node000004"><a xlink:title=" ">
<polygon fill="#e0e0e0" stroke="#999999" points="548.5,-19 439.5,-19 439.5,0 548.5,0 548.5,-19"/>
<text text-anchor="middle" x="494" y="-7" font-family="Helvetica,sans-Serif" font-size="10.00">stm32f4xx_ll_rcc.h</text>
</a>
</g>
</g>
<!-- Node1&#45;&gt;Node4 -->
<g id="edge3_Node000001_Node000004" class="edge">
<title>Node1&#45;&gt;Node4</title>
<g id="a_edge3_Node000001_Node000004"><a xlink:title=" ">
<path fill="none" stroke="#63b8ff" d="M287.81,-177.47C367.86,-174.07 489.94,-163.25 519,-129 543.61,-100 520.96,-52.82 505.55,-27.63"/>
<polygon fill="#63b8ff" stroke="#63b8ff" points="508.45,-25.67 500.11,-19.13 502.55,-29.44 508.45,-25.67"/>
</a>
</g>
</g>
<!-- Node5 -->
<g id="Node000005" class="node">
<title>Node5</title>
<g id="a_Node000005"><a xlink:title=" ">
<polygon fill="#e0e0e0" stroke="#999999" points="272,-129 160,-129 160,-110 272,-110 272,-129"/>
<text text-anchor="middle" x="216" y="-117" font-family="Helvetica,sans-Serif" font-size="10.00">stm32f4xx_ll_bus.h</text>
</a>
</g>
</g>
<!-- Node1&#45;&gt;Node5 -->
<g id="edge4_Node000001_Node000005" class="edge">
<title>Node1&#45;&gt;Node5</title>
<g id="a_edge4_Node000001_Node000005"><a xlink:title=" ">
<path fill="none" stroke="#63b8ff" d="M216,-164.84C216,-157.21 216,-147.7 216,-139.45"/>
<polygon fill="#63b8ff" stroke="#63b8ff" points="219.5,-139.27 216,-129.27 212.5,-139.27 219.5,-139.27"/>
</a>
</g>
</g>
<!-- Node6 -->
<g id="Node000006" class="node">
<title>Node6</title>
<g id="a_Node000006"><a xlink:title=" ">
<polygon fill="#e0e0e0" stroke="#999999" points="406,-129 290,-129 290,-110 406,-110 406,-129"/>
<text text-anchor="middle" x="348" y="-117" font-family="Helvetica,sans-Serif" font-size="10.00">stm32f4xx_ll_gpio.h</text>
</a>
</g>
</g>
<!-- Node1&#45;&gt;Node6 -->
<g id="edge5_Node000001_Node000006" class="edge">
<title>Node1&#45;&gt;Node6</title>
<g id="a_edge5_Node000001_Node000006"><a xlink:title=" ">
<path fill="none" stroke="#63b8ff" d="M247.62,-164.99C269.35,-155.36 297.97,-142.67 319.09,-133.31"/>
<polygon fill="#63b8ff" stroke="#63b8ff" points="320.78,-136.39 328.51,-129.14 317.95,-129.99 320.78,-136.39"/>
</a>
</g>
</g>
<!-- Node7 -->
<g id="Node000007" class="node">
<title>Node7</title>
<g id="a_Node000007"><a xlink:href="eldriver__hall_8h.html" target="_top" xlink:title="Hall Sensor and Commutation Delay Driver.">
<polygon fill="white" stroke="#666666" points="510,-129 424,-129 424,-110 510,-110 510,-129"/>
<text text-anchor="middle" x="467" y="-117" font-family="Helvetica,sans-Serif" font-size="10.00">eldriver_hall.h</text>
</a>
</g>
</g>
<!-- Node1&#45;&gt;Node7 -->
<g id="edge6_Node000001_Node000007" class="edge">
<title>Node1&#45;&gt;Node7</title>
<g id="a_edge6_Node000001_Node000007"><a xlink:title=" ">
<path fill="none" stroke="#63b8ff" d="M276.12,-164.99C320.38,-154.67 379.68,-140.85 420.37,-131.37"/>
<polygon fill="#63b8ff" stroke="#63b8ff" points="421.36,-134.73 430.3,-129.05 419.77,-127.91 421.36,-134.73"/>
</a>
</g>
</g>
<!-- Node9 -->
<g id="Node000009" class="node">
<title>Node9</title>
<g id="a_Node000009"><a xlink:href="eldriver__conf_8h.html" target="_top" xlink:title="Global Configuration for STM32F4 eldrivers.">
<polygon fill="white" stroke="#666666" points="295.5,-74 206.5,-74 206.5,-55 295.5,-55 295.5,-74"/>
<text text-anchor="middle" x="251" y="-62" font-family="Helvetica,sans-Serif" font-size="10.00">eldriver_conf.h</text>
</a>
</g>
</g>
<!-- Node1&#45;&gt;Node9 -->
<g id="edge14_Node000001_Node000009" class="edge">
<title>Node1&#45;&gt;Node9</title>
<g id="a_edge14_Node000001_Node000009"><a xlink:title=" ">
<path fill="none" stroke="#63b8ff" d="M186.69,-164.99C163.52,-151.91 137.19,-131.25 151,-110 161.39,-94 179.02,-83.7 196.6,-77.1"/>
<polygon fill="#63b8ff" stroke="#63b8ff" points="197.98,-80.33 206.32,-73.8 195.72,-73.7 197.98,-80.33"/>
</a>
</g>
</g>
<!-- Node8 -->
<g id="Node000008" class="node">
<title>Node8</title>
<g id="a_Node000008"><a xlink:title=" ">
<polygon fill="#e0e0e0" stroke="#999999" points="431.5,-74 378.5,-74 378.5,-55 431.5,-55 431.5,-74"/>
<text text-anchor="middle" x="405" y="-62" font-family="Helvetica,sans-Serif" font-size="10.00">stdint.h</text>
</a>
</g>
</g>
<!-- Node7&#45;&gt;Node8 -->
<g id="edge7_Node000007_Node000008" class="edge">
<title>Node7&#45;&gt;Node8</title>
<g id="a_edge7_Node000007_Node000008"><a xlink:title=" ">
<path fill="none" stroke="#63b8ff" d="M457.04,-109.98C447.87,-102.15 434.06,-90.34 422.97,-80.86"/>
<polygon fill="#63b8ff" stroke="#63b8ff" points="425.02,-78.01 415.14,-74.17 420.47,-83.33 425.02,-78.01"/>
</a>
</g>
</g>
<!-- Node7&#45;&gt;Node9 -->
<g id="edge8_Node000007_Node000009" class="edge">
<title>Node7&#45;&gt;Node9</title>
<g id="a_edge8_Node000007_Node000009"><a xlink:title=" ">
<path fill="none" stroke="#63b8ff" d="M432.3,-109.98C395.25,-100.89 336.41,-86.46 295.87,-76.51"/>
<polygon fill="#63b8ff" stroke="#63b8ff" points="296.52,-73.07 285.98,-74.08 294.85,-79.86 296.52,-73.07"/>
</a>
</g>
</g>
<!-- Node11 -->
<g id="Node000011" class="node">
<title>Node11</title>
<g id="a_Node000011"><a xlink:title=" ">
<polygon fill="#e0e0e0" stroke="#999999" points="500.5,-74 449.5,-74 449.5,-55 500.5,-55 500.5,-74"/>
<text text-anchor="middle" x="475" y="-62" font-family="Helvetica,sans-Serif" font-size="10.00">math.h</text>
</a>
</g>
</g>
<!-- Node7&#45;&gt;Node11 -->
<g id="edge13_Node000007_Node000011" class="edge">
<title>Node7&#45;&gt;Node11</title>
<g id="a_edge13_Node000007_Node000011"><a xlink:title=" ">
<path fill="none" stroke="#63b8ff" d="M468.32,-109.75C469.37,-102.8 470.87,-92.85 472.19,-84.13"/>
<polygon fill="#63b8ff" stroke="#63b8ff" points="475.67,-84.5 473.7,-74.09 468.75,-83.45 475.67,-84.5"/>
</a>
</g>
</g>
<!-- Node9&#45;&gt;Node2 -->
<g id="edge9_Node000009_Node000002" class="edge">
<title>Node9&#45;&gt;Node2</title>
<g id="a_edge9_Node000009_Node000002"><a xlink:title=" ">
<path fill="none" stroke="#63b8ff" d="M219.67,-54.98C186.51,-45.97 134,-31.7 97.44,-21.76"/>
<polygon fill="#63b8ff" stroke="#63b8ff" points="98.14,-18.33 87.58,-19.08 96.31,-25.08 98.14,-18.33"/>
</a>
</g>
</g>
<!-- Node9&#45;&gt;Node3 -->
<g id="edge11_Node000009_Node000003" class="edge">
<title>Node9&#45;&gt;Node3</title>
<g id="a_edge11_Node000009_Node000003"><a xlink:title=" ">
<path fill="none" stroke="#63b8ff" d="M240.56,-54.98C230.85,-47.07 216.18,-35.11 204.5,-25.58"/>
<polygon fill="#63b8ff" stroke="#63b8ff" points="206.6,-22.78 196.63,-19.17 202.17,-28.2 206.6,-22.78"/>
</a>
</g>
</g>
<!-- Node9&#45;&gt;Node4 -->
<g id="edge12_Node000009_Node000004" class="edge">
<title>Node9&#45;&gt;Node4</title>
<g id="a_edge12_Node000009_Node000004"><a xlink:title=" ">
<path fill="none" stroke="#63b8ff" d="M290.04,-54.98C332.08,-45.82 399.04,-31.21 444.68,-21.26"/>
<polygon fill="#63b8ff" stroke="#63b8ff" points="445.63,-24.63 454.65,-19.08 444.14,-17.79 445.63,-24.63"/>
</a>
</g>
</g>
<!-- Node10 -->
<g id="Node000010" class="node">
<title>Node10</title>
<g id="a_Node000010"><a xlink:title=" ">
<polygon fill="#e0e0e0" stroke="#999999" points="376,-19 260,-19 260,0 376,0 376,-19"/>
<text text-anchor="middle" x="318" y="-7" font-family="Helvetica,sans-Serif" font-size="10.00">stm32f4xx_ll_dma.h</text>
</a>
</g>
</g>
<!-- Node9&#45;&gt;Node10 -->
<g id="edge10_Node000009_Node000010" class="edge">
<title>Node9&#45;&gt;Node10</title>
<g id="a_edge10_Node000009_Node000010"><a xlink:title=" ">
<path fill="none" stroke="#63b8ff" d="M261.76,-54.98C271.77,-47.07 286.89,-35.11 298.93,-25.58"/>
<polygon fill="#63b8ff" stroke="#63b8ff" points="301.37,-28.12 307.04,-19.17 297.03,-22.63 301.37,-28.12"/>
</a>
</g>
</g>
</g>
</svg>
