<?xml version="1.0" encoding="UTF-8" standalone="no"?>
<!DOCTYPE svg PUBLIC "-//W3C//DTD SVG 1.1//EN"
 "http://www.w3.org/Graphics/SVG/1.1/DTD/svg11.dtd">
<!-- Generated by graphviz version 2.43.0 (0)
 -->
<!-- Title: platform/stm32f4/eldriver/eldriver_usbcdc.h Pages: 1 -->
<svg width="585pt" height="148pt"
 viewBox="0.00 0.00 584.50 148.00" xmlns="http://www.w3.org/2000/svg" xmlns:xlink="http://www.w3.org/1999/xlink">
<g id="graph0" class="graph" transform="scale(1 1) rotate(0) translate(4 144)">
<title>platform/stm32f4/eldriver/eldriver_usbcdc.h</title>
<!-- Node1 -->
<g id="Node000001" class="node">
<title>Node1</title>
<g id="a_Node000001"><a xlink:title="USB CDC (Communication Device Class) Driver.">
<polygon fill="#999999" stroke="#666666" points="216.5,-140 73.5,-140 73.5,-110 216.5,-110 216.5,-140"/>
<text text-anchor="start" x="81.5" y="-128" font-family="Helvetica,sans-Serif" font-size="10.00">platform/stm32f4/eldriver</text>
<text text-anchor="middle" x="145" y="-117" font-family="Helvetica,sans-Serif" font-size="10.00">/eldriver_usbcdc.h</text>
</a>
</g>
</g>
<!-- Node2 -->
<g id="Node000002" class="node">
<title>Node2</title>
<g id="a_Node000002"><a xlink:href="eldriver__uart_8h.html" target="_top" xlink:title="Header file for UART/Communication Peripheral Driver.">
<polygon fill="white" stroke="#666666" points="126,-74 38,-74 38,-55 126,-55 126,-74"/>
<text text-anchor="middle" x="82" y="-62" font-family="Helvetica,sans-Serif" font-size="10.00">eldriver_uart.h</text>
</a>
</g>
</g>
<!-- Node1&#45;&gt;Node2 -->
<g id="edge1_Node000001_Node000002" class="edge">
<title>Node1&#45;&gt;Node2</title>
<g id="a_edge1_Node000001_Node000002"><a xlink:title=" ">
<path fill="none" stroke="#63b8ff" d="M129.75,-109.84C120.42,-101.17 108.47,-90.08 98.85,-81.15"/>
<polygon fill="#63b8ff" stroke="#63b8ff" points="101.15,-78.51 91.44,-74.27 96.39,-83.64 101.15,-78.51"/>
</a>
</g>
</g>
<!-- Node4 -->
<g id="Node000004" class="node">
<title>Node4</title>
<g id="a_Node000004"><a xlink:href="eldriver__conf_8h.html" target="_top" xlink:title="Global Configuration for STM32F4 eldrivers.">
<polygon fill="white" stroke="#666666" points="326.5,-74 197.5,-74 197.5,-55 326.5,-55 326.5,-74"/>
<text text-anchor="middle" x="262" y="-62" font-family="Helvetica,sans-Serif" font-size="10.00">eldriver/eldriver_conf.h</text>
</a>
</g>
</g>
<!-- Node1&#45;&gt;Node4 -->
<g id="edge3_Node000001_Node000004" class="edge">
<title>Node1&#45;&gt;Node4</title>
<g id="a_edge3_Node000001_Node000004"><a xlink:title=" ">
<path fill="none" stroke="#63b8ff" d="M173.02,-109.99C192.02,-100.49 216.97,-88.02 235.61,-78.69"/>
<polygon fill="#63b8ff" stroke="#63b8ff" points="237.34,-81.74 244.72,-74.14 234.21,-75.48 237.34,-81.74"/>
</a>
</g>
</g>
<!-- Node3 -->
<g id="Node000003" class="node">
<title>Node3</title>
<g id="a_Node000003"><a xlink:title=" ">
<polygon fill="#e0e0e0" stroke="#999999" points="56,-19 0,-19 0,0 56,0 56,-19"/>
<text text-anchor="middle" x="28" y="-7" font-family="Helvetica,sans-Serif" font-size="10.00">elcore.h</text>
</a>
</g>
</g>
<!-- Node2&#45;&gt;Node3 -->
<g id="edge2_Node000002_Node000003" class="edge">
<title>Node2&#45;&gt;Node3</title>
<g id="a_edge2_Node000002_Node000003"><a xlink:title=" ">
<path fill="none" stroke="#63b8ff" d="M73.08,-54.75C65.22,-47.03 53.57,-35.6 44.08,-26.28"/>
<polygon fill="#63b8ff" stroke="#63b8ff" points="46.34,-23.6 36.75,-19.09 41.44,-28.59 46.34,-23.6"/>
</a>
</g>
</g>
<!-- Node5 -->
<g id="Node000005" class="node">
<title>Node5</title>
<g id="a_Node000005"><a xlink:title=" ">
<polygon fill="#e0e0e0" stroke="#999999" points="186,-19 74,-19 74,0 186,0 186,-19"/>
<text text-anchor="middle" x="130" y="-7" font-family="Helvetica,sans-Serif" font-size="10.00">stm32f4xx_ll_adc.h</text>
</a>
</g>
</g>
<!-- Node4&#45;&gt;Node5 -->
<g id="edge4_Node000004_Node000005" class="edge">
<title>Node4&#45;&gt;Node5</title>
<g id="a_edge4_Node000004_Node000005"><a xlink:title=" ">
<path fill="none" stroke="#63b8ff" d="M240.79,-54.98C219.27,-46.34 185.72,-32.87 161.17,-23.02"/>
<polygon fill="#63b8ff" stroke="#63b8ff" points="162.18,-19.65 151.59,-19.17 159.57,-26.14 162.18,-19.65"/>
</a>
</g>
</g>
<!-- Node6 -->
<g id="Node000006" class="node">
<title>Node6</title>
<g id="a_Node000006"><a xlink:title=" ">
<polygon fill="#e0e0e0" stroke="#999999" points="320,-19 204,-19 204,0 320,0 320,-19"/>
<text text-anchor="middle" x="262" y="-7" font-family="Helvetica,sans-Serif" font-size="10.00">stm32f4xx_ll_dma.h</text>
</a>
</g>
</g>
<!-- Node4&#45;&gt;Node6 -->
<g id="edge5_Node000004_Node000006" class="edge">
<title>Node4&#45;&gt;Node6</title>
<g id="a_edge5_Node000004_Node000006"><a xlink:title=" ">
<path fill="none" stroke="#63b8ff" d="M262,-54.75C262,-47.8 262,-37.85 262,-29.13"/>
<polygon fill="#63b8ff" stroke="#63b8ff" points="265.5,-29.09 262,-19.09 258.5,-29.09 265.5,-29.09"/>
</a>
</g>
</g>
<!-- Node7 -->
<g id="Node000007" class="node">
<title>Node7</title>
<g id="a_Node000007"><a xlink:title=" ">
<polygon fill="#e0e0e0" stroke="#999999" points="449.5,-19 338.5,-19 338.5,0 449.5,0 449.5,-19"/>
<text text-anchor="middle" x="394" y="-7" font-family="Helvetica,sans-Serif" font-size="10.00">stm32f4xx_ll_tim.h</text>
</a>
</g>
</g>
<!-- Node4&#45;&gt;Node7 -->
<g id="edge6_Node000004_Node000007" class="edge">
<title>Node4&#45;&gt;Node7</title>
<g id="a_edge6_Node000004_Node000007"><a xlink:title=" ">
<path fill="none" stroke="#63b8ff" d="M283.21,-54.98C304.73,-46.34 338.28,-32.87 362.83,-23.02"/>
<polygon fill="#63b8ff" stroke="#63b8ff" points="364.43,-26.14 372.41,-19.17 361.82,-19.65 364.43,-26.14"/>
</a>
</g>
</g>
<!-- Node8 -->
<g id="Node000008" class="node">
<title>Node8</title>
<g id="a_Node000008"><a xlink:title=" ">
<polygon fill="#e0e0e0" stroke="#999999" points="576.5,-19 467.5,-19 467.5,0 576.5,0 576.5,-19"/>
<text text-anchor="middle" x="522" y="-7" font-family="Helvetica,sans-Serif" font-size="10.00">stm32f4xx_ll_rcc.h</text>
</a>
</g>
</g>
<!-- Node4&#45;&gt;Node8 -->
<g id="edge7_Node000004_Node000008" class="edge">
<title>Node4&#45;&gt;Node8</title>
<g id="a_edge7_Node000004_Node000008"><a xlink:title=" ">
<path fill="none" stroke="#63b8ff" d="M303.77,-54.98C348.94,-45.78 421,-31.09 469.85,-21.13"/>
<polygon fill="#63b8ff" stroke="#63b8ff" points="470.8,-24.51 479.9,-19.08 469.4,-17.65 470.8,-24.51"/>
</a>
</g>
</g>
</g>
</svg>
