<?xml version="1.0" encoding="UTF-8" standalone="no"?>
<!DOCTYPE svg PUBLIC "-//W3C//DTD SVG 1.1//EN"
 "http://www.w3.org/Graphics/SVG/1.1/DTD/svg11.dtd">
<!-- Generated by graphviz version 2.43.0 (0)
 -->
<!-- Title: platform/stm32f4/eldriver/eldriver_conf.h Pages: 1 -->
<svg width="845pt" height="170pt"
 viewBox="0.00 0.00 845.00 170.00" xmlns="http://www.w3.org/2000/svg" xmlns:xlink="http://www.w3.org/1999/xlink">
<g id="graph0" class="graph" transform="scale(1 1) rotate(0) translate(4 166)">
<title>platform/stm32f4/eldriver/eldriver_conf.h</title>
<!-- Node1 -->
<g id="Node000001" class="node">
<title>Node1</title>
<g id="a_Node000001"><a xlink:title="Global Configuration for STM32F4 eldrivers.">
<polygon fill="#999999" stroke="#666666" points="434,-162 291,-162 291,-132 434,-132 434,-162"/>
<text text-anchor="start" x="299" y="-150" font-family="Helvetica,sans-Serif" font-size="10.00">platform/stm32f4/eldriver</text>
<text text-anchor="middle" x="362.5" y="-139" font-family="Helvetica,sans-Serif" font-size="10.00">/eldriver_conf.h</text>
</a>
</g>
</g>
<!-- Node2 -->
<g id="Node000002" class="node">
<title>Node2</title>
<g id="a_Node000002"><a xlink:href="eldriver__hall_8c.html" target="_top" xlink:title=" ">
<polygon fill="white" stroke="#666666" points="143,-30 0,-30 0,0 143,0 143,-30"/>
<text text-anchor="start" x="8" y="-18" font-family="Helvetica,sans-Serif" font-size="10.00">platform/stm32f4/eldriver</text>
<text text-anchor="middle" x="71.5" y="-7" font-family="Helvetica,sans-Serif" font-size="10.00">/eldriver_hall.c</text>
</a>
</g>
</g>
<!-- Node1&#45;&gt;Node2 -->
<g id="edge1_Node000001_Node000002" class="edge">
<title>Node1&#45;&gt;Node2</title>
<g id="a_edge1_Node000001_Node000002"><a xlink:title=" ">
<path fill="none" stroke="#63b8ff" d="M280.57,-144.96C195.55,-141.94 70.83,-131.4 40.5,-96 23.93,-76.66 43.33,-47.46 58.04,-30.2"/>
<polygon fill="#63b8ff" stroke="#63b8ff" points="280.62,-148.47 290.73,-145.29 280.85,-141.47 280.62,-148.47"/>
</a>
</g>
</g>
<!-- Node3 -->
<g id="Node000003" class="node">
<title>Node3</title>
<g id="a_Node000003"><a xlink:href="eldriver__hall_8h.html" target="_top" xlink:title="Hall Sensor and Commutation Delay Driver.">
<polygon fill="white" stroke="#666666" points="193,-96 50,-96 50,-66 193,-66 193,-96"/>
<text text-anchor="start" x="58" y="-84" font-family="Helvetica,sans-Serif" font-size="10.00">platform/stm32f4/eldriver</text>
<text text-anchor="middle" x="121.5" y="-73" font-family="Helvetica,sans-Serif" font-size="10.00">/eldriver_hall.h</text>
</a>
</g>
</g>
<!-- Node1&#45;&gt;Node3 -->
<g id="edge2_Node000001_Node000003" class="edge">
<title>Node1&#45;&gt;Node3</title>
<g id="a_edge2_Node000001_Node000003"><a xlink:title=" ">
<path fill="none" stroke="#63b8ff" d="M299.94,-129.39C260.92,-119.03 211.28,-105.84 174.27,-96.01"/>
<polygon fill="#63b8ff" stroke="#63b8ff" points="299.05,-132.77 309.61,-131.95 300.84,-126.01 299.05,-132.77"/>
</a>
</g>
</g>
<!-- Node4 -->
<g id="Node000004" class="node">
<title>Node4</title>
<g id="a_Node000004"><a xlink:href="eldriver__mc3p_8c.html" target="_top" xlink:title=" ">
<polygon fill="white" stroke="#666666" points="354,-96 211,-96 211,-66 354,-66 354,-96"/>
<text text-anchor="start" x="219" y="-84" font-family="Helvetica,sans-Serif" font-size="10.00">platform/stm32f4/eldriver</text>
<text text-anchor="middle" x="282.5" y="-73" font-family="Helvetica,sans-Serif" font-size="10.00">/eldriver_mc3p.c</text>
</a>
</g>
</g>
<!-- Node1&#45;&gt;Node4 -->
<g id="edge4_Node000001_Node000004" class="edge">
<title>Node1&#45;&gt;Node4</title>
<g id="a_edge4_Node000001_Node000004"><a xlink:title=" ">
<path fill="none" stroke="#63b8ff" d="M336.85,-125.48C324.89,-115.91 310.97,-104.77 300.2,-96.16"/>
<polygon fill="#63b8ff" stroke="#63b8ff" points="334.75,-128.28 344.75,-131.8 339.12,-122.82 334.75,-128.28"/>
</a>
</g>
</g>
<!-- Node5 -->
<g id="Node000005" class="node">
<title>Node5</title>
<g id="a_Node000005"><a xlink:href="eldriver__mc3p__it_8c.html" target="_top" xlink:title=" ">
<polygon fill="white" stroke="#666666" points="515,-96 372,-96 372,-66 515,-66 515,-96"/>
<text text-anchor="start" x="380" y="-84" font-family="Helvetica,sans-Serif" font-size="10.00">platform/stm32f4/eldriver</text>
<text text-anchor="middle" x="443.5" y="-73" font-family="Helvetica,sans-Serif" font-size="10.00">/eldriver_mc3p_it.c</text>
</a>
</g>
</g>
<!-- Node1&#45;&gt;Node5 -->
<g id="edge5_Node000001_Node000005" class="edge">
<title>Node1&#45;&gt;Node5</title>
<g id="a_edge5_Node000001_Node000005"><a xlink:title=" ">
<path fill="none" stroke="#63b8ff" d="M388.47,-125.48C400.58,-115.91 414.68,-104.77 425.57,-96.16"/>
<polygon fill="#63b8ff" stroke="#63b8ff" points="386.15,-122.85 380.48,-131.8 390.49,-128.34 386.15,-122.85"/>
</a>
</g>
</g>
<!-- Node6 -->
<g id="Node000006" class="node">
<title>Node6</title>
<g id="a_Node000006"><a xlink:href="eldriver__uart_8c.html" target="_top" xlink:title=" ">
<polygon fill="white" stroke="#666666" points="676,-96 533,-96 533,-66 676,-66 676,-96"/>
<text text-anchor="start" x="541" y="-84" font-family="Helvetica,sans-Serif" font-size="10.00">platform/stm32f4/eldriver</text>
<text text-anchor="middle" x="604.5" y="-73" font-family="Helvetica,sans-Serif" font-size="10.00">/eldriver_uart.c</text>
</a>
</g>
</g>
<!-- Node1&#45;&gt;Node6 -->
<g id="edge6_Node000001_Node000006" class="edge">
<title>Node1&#45;&gt;Node6</title>
<g id="a_edge6_Node000001_Node000006"><a xlink:title=" ">
<path fill="none" stroke="#63b8ff" d="M425.32,-129.39C464.5,-119.03 514.35,-105.84 551.52,-96.01"/>
<polygon fill="#63b8ff" stroke="#63b8ff" points="424.38,-126.01 415.61,-131.95 426.17,-132.78 424.38,-126.01"/>
</a>
</g>
</g>
<!-- Node7 -->
<g id="Node000007" class="node">
<title>Node7</title>
<g id="a_Node000007"><a xlink:href="eldriver__usbcdc_8h.html" target="_top" xlink:title="USB CDC (Communication Device Class) Driver.">
<polygon fill="white" stroke="#666666" points="837,-96 694,-96 694,-66 837,-66 837,-96"/>
<text text-anchor="start" x="702" y="-84" font-family="Helvetica,sans-Serif" font-size="10.00">platform/stm32f4/eldriver</text>
<text text-anchor="middle" x="765.5" y="-73" font-family="Helvetica,sans-Serif" font-size="10.00">/eldriver_usbcdc.h</text>
</a>
</g>
</g>
<!-- Node1&#45;&gt;Node7 -->
<g id="edge7_Node000001_Node000007" class="edge">
<title>Node1&#45;&gt;Node7</title>
<g id="a_edge7_Node000001_Node000007"><a xlink:title=" ">
<path fill="none" stroke="#63b8ff" d="M444.32,-133.79C509.66,-123.93 603.52,-109.52 685.5,-96 688.28,-95.54 691.12,-95.07 693.98,-94.59"/>
<polygon fill="#63b8ff" stroke="#63b8ff" points="443.45,-130.38 434.09,-135.33 444.5,-137.3 443.45,-130.38"/>
</a>
</g>
</g>
<!-- Node3&#45;&gt;Node2 -->
<g id="edge3_Node000003_Node000002" class="edge">
<title>Node3&#45;&gt;Node2</title>
<g id="a_edge3_Node000003_Node000002"><a xlink:title=" ">
<path fill="none" stroke="#63b8ff" d="M104.16,-57.81C97,-48.64 88.9,-38.28 82.57,-30.16"/>
<polygon fill="#63b8ff" stroke="#63b8ff" points="101.49,-60.07 110.4,-65.8 107,-55.76 101.49,-60.07"/>
</a>
</g>
</g>
<!-- Node8 -->
<g id="Node000008" class="node">
<title>Node8</title>
<g id="a_Node000008"><a xlink:href="eldriver__usbcdc_8c.html" target="_top" xlink:title=" ">
<polygon fill="white" stroke="#666666" points="837,-30 694,-30 694,0 837,0 837,-30"/>
<text text-anchor="start" x="702" y="-18" font-family="Helvetica,sans-Serif" font-size="10.00">platform/stm32f4/eldriver</text>
<text text-anchor="middle" x="765.5" y="-7" font-family="Helvetica,sans-Serif" font-size="10.00">/eldriver_usbcdc.c</text>
</a>
</g>
</g>
<!-- Node7&#45;&gt;Node8 -->
<g id="edge8_Node000007_Node000008" class="edge">
<title>Node7&#45;&gt;Node8</title>
<g id="a_edge8_Node000007_Node000008"><a xlink:title=" ">
<path fill="none" stroke="#63b8ff" d="M765.5,-55.54C765.5,-46.96 765.5,-37.61 765.5,-30.16"/>
<polygon fill="#63b8ff" stroke="#63b8ff" points="762,-55.8 765.5,-65.8 769,-55.8 762,-55.8"/>
</a>
</g>
</g>
</g>
</svg>
