<?xml version="1.0" encoding="UTF-8" standalone="no"?>
<!DOCTYPE svg PUBLIC "-//W3C//DTD SVG 1.1//EN"
 "http://www.w3.org/Graphics/SVG/1.1/DTD/svg11.dtd">
<!-- Generated by graphviz version 2.43.0 (0)
 -->
<!-- Title: eldriver_mc3p_init Pages: 1 -->
<!--zoomable 212 -->

<svg id="main" version="1.1" xmlns="http://www.w3.org/2000/svg" xmlns:xlink="http://www.w3.org/1999/xlink" xml:space="preserve" onload="init(evt)">
<style type="text/css"><![CDATA[
.node, .edge {opacity: 0.7;}
.node.selected, .edge.selected {opacity: 1;}
.edge:hover path { stroke: red; }
.edge:hover polygon { stroke: red; fill: red; }
]]></style>

<defs>
  <circle id="rim" cx="0" cy="0" r="7"/>
  <circle id="rim2" cx="0" cy="0" r="3.5"/>
  <g id="zoomPlus">
    <use xlink:href="#rim" fill="#404040"><set attributeName="fill" to="#808080" begin="zoomplus.mouseover" end="zoomplus.mouseout"/></use>
    <path d="M-4,0h8M0,-4v8" fill="none" stroke="white" stroke-width="1.5" pointer-events="none"/>
  </g>
  <g id="zoomMin">
    <use xlink:href="#rim" fill="#404040"><set attributeName="fill" to="#808080" begin="zoomminus.mouseover" end="zoomminus.mouseout"/></use>
    <path d="M-4,0h8" fill="none" stroke="white" stroke-width="1.5" pointer-events="none"/>
  </g>
  <g id="arrowUp" transform="translate(30 24)">
    <use xlink:href="#rim"/>
    <path pointer-events="none" fill="none" stroke="white" stroke-width="1.5" d="M0,-3.0v7 M-2.5,-0.5L0,-3.0L2.5,-0.5"/>
  </g>
  <g id="arrowRight" transform="rotate(90) translate(36 -43)">
    <use xlink:href="#rim"/>
    <path pointer-events="none" fill="none" stroke="white" stroke-width="1.5" d="M0,-3.0v7 M-2.5,-0.5L0,-3.0L2.5,-0.5"/>
  </g>
  <g id="arrowDown" transform="rotate(180) translate(-30 -48)">
    <use xlink:href="#rim"/>
    <path pointer-events="none" fill="none" stroke="white" stroke-width="1.5" d="M0,-3.0v7 M-2.5,-0.5L0,-3.0L2.5,-0.5"/>
  </g>
  <g id="arrowLeft" transform="rotate(270) translate(-36 17)">
    <use xlink:href="#rim"/>
    <path pointer-events="none" fill="none" stroke="white" stroke-width="1.5" d="M0,-3.0v7 M-2.5,-0.5L0,-3.0L2.5,-0.5"/>
  </g>
  <g id="resetDef">
    <use xlink:href="#rim2" fill="#404040"><set attributeName="fill" to="#808080" begin="reset.mouseover" end="reset.mouseout"/></use>
  </g>
</defs>
<script type="application/ecmascript">
var viewWidth = 594;
var viewHeight = 212;
var sectionId = 'dynsection-2';
</script>
<script type="application/ecmascript" xlink:href="svg.min.js"/>
<svg id="graph" class="graph">
<g id="viewport">
<title>eldriver_mc3p_init</title>
<!-- Node1 -->
<g id="Node000001" class="node">
<title>Node1</title>
<g id="a_Node000001"><a xlink:title="Initialize MC3P driver and ADC scales.">
<polygon fill="#999999" stroke="#666666" points="107,-111 0,-111 0,-92 107,-92 107,-111"/>
<text text-anchor="middle" x="53.5" y="-99" font-family="Helvetica,sans-Serif" font-size="10.00">eldriver_mc3p_init</text>
</a>
</g>
</g>
<!-- Node2 -->
<g id="Node000002" class="node">
<title>Node2</title>
<g id="a_Node000002"><a xlink:href="eldriver__mc3p_8c.html#ae2234aacc24783e19b8d828335af202c" target="_top" xlink:title="Set/Update ADC scaling factors.">
<polygon fill="white" stroke="#666666" points="281,-204 143,-204 143,-185 281,-185 281,-204"/>
<text text-anchor="middle" x="212" y="-192" font-family="Helvetica,sans-Serif" font-size="10.00">eldriver_mc3p_setScales</text>
</a>
</g>
</g>
<!-- Node1&#45;&gt;Node2 -->
<g id="edge1_Node000001_Node000002" class="edge">
<title>Node1&#45;&gt;Node2</title>
<g id="a_edge1_Node000001_Node000002"><a xlink:title=" ">
<path fill="none" stroke="#63b8ff" d="M63.04,-111.11C77.78,-127.09 109.61,-159.08 143,-176.5 146.55,-178.35 150.31,-180.03 154.17,-181.54"/>
<polygon fill="#63b8ff" stroke="#63b8ff" points="153.28,-184.94 163.88,-184.96 155.61,-178.34 153.28,-184.94"/>
</a>
</g>
</g>
<!-- Node3 -->
<g id="Node000003" class="node">
<title>Node3</title>
<g id="a_Node000003"><a xlink:href="eldriver__mc3p_8c.html#aa0a13dc55dd5d0f95e3c4d2c0d9b16bc" target="_top" xlink:title=" ">
<polygon fill="white" stroke="#666666" points="255.5,-167 168.5,-167 168.5,-148 255.5,-148 255.5,-167"/>
<text text-anchor="middle" x="212" y="-155" font-family="Helvetica,sans-Serif" font-size="10.00">mc3p_adc_init</text>
</a>
</g>
</g>
<!-- Node1&#45;&gt;Node3 -->
<g id="edge2_Node000001_Node000003" class="edge">
<title>Node1&#45;&gt;Node3</title>
<g id="a_edge2_Node000001_Node000003"><a xlink:title=" ">
<path fill="none" stroke="#63b8ff" d="M74.55,-111.12C92.28,-119.37 118.97,-131.21 143,-139.5 148.91,-141.54 155.17,-143.48 161.42,-145.29"/>
<polygon fill="#63b8ff" stroke="#63b8ff" points="160.58,-148.69 171.15,-148 162.46,-141.94 160.58,-148.69"/>
</a>
</g>
</g>
<!-- Node6 -->
<g id="Node000006" class="node">
<title>Node6</title>
<g id="a_Node000006"><a xlink:href="eldriver__mc3p_8c.html#a432dc77cbcdc5359aa8c84c91e039905" target="_top" xlink:title=" ">
<polygon fill="white" stroke="#666666" points="258,-130 166,-130 166,-111 258,-111 258,-130"/>
<text text-anchor="middle" x="212" y="-118" font-family="Helvetica,sans-Serif" font-size="10.00">mc3p_dma_init</text>
</a>
</g>
</g>
<!-- Node1&#45;&gt;Node6 -->
<g id="edge5_Node000001_Node000006" class="edge">
<title>Node1&#45;&gt;Node6</title>
<g id="a_edge5_Node000001_Node000006"><a xlink:title=" ">
<path fill="none" stroke="#63b8ff" d="M107.05,-107.88C122.71,-109.78 139.92,-111.87 155.74,-113.79"/>
<polygon fill="#63b8ff" stroke="#63b8ff" points="155.57,-117.3 165.92,-115.03 156.41,-110.35 155.57,-117.3"/>
</a>
</g>
</g>
<!-- Node7 -->
<g id="Node000007" class="node">
<title>Node7</title>
<g id="a_Node000007"><a xlink:href="eldriver__mc3p_8c.html#a971c27cf7b21c2d9ec874625cf83d7dd" target="_top" xlink:title=" ">
<polygon fill="white" stroke="#666666" points="257.5,-93 166.5,-93 166.5,-74 257.5,-74 257.5,-93"/>
<text text-anchor="middle" x="212" y="-81" font-family="Helvetica,sans-Serif" font-size="10.00">mc3p_gpio_init</text>
</a>
</g>
</g>
<!-- Node1&#45;&gt;Node7 -->
<g id="edge6_Node000001_Node000007" class="edge">
<title>Node1&#45;&gt;Node7</title>
<g id="a_edge6_Node000001_Node000007"><a xlink:title=" ">
<path fill="none" stroke="#63b8ff" d="M107.05,-95.46C122.85,-93.64 140.24,-91.64 156.19,-89.8"/>
<polygon fill="#63b8ff" stroke="#63b8ff" points="156.89,-93.25 166.43,-88.63 156.09,-86.29 156.89,-93.25"/>
</a>
</g>
</g>
<!-- Node8 -->
<g id="Node000008" class="node">
<title>Node8</title>
<g id="a_Node000008"><a xlink:href="eldriver__mc3p_8c.html#ae8efda39d349a2234ffa3a0ec6ee80f7" target="_top" xlink:title=" ">
<polygon fill="white" stroke="#666666" points="268,-56 156,-56 156,-37 268,-37 268,-56"/>
<text text-anchor="middle" x="212" y="-44" font-family="Helvetica,sans-Serif" font-size="10.00">mc3p_interrupt_init</text>
</a>
</g>
</g>
<!-- Node1&#45;&gt;Node8 -->
<g id="edge7_Node000001_Node000008" class="edge">
<title>Node1&#45;&gt;Node8</title>
<g id="a_edge7_Node000001_Node000008"><a xlink:title=" ">
<path fill="none" stroke="#63b8ff" d="M76.06,-91.92C93.82,-84.23 119.77,-73.44 143,-65.5 149.62,-63.24 156.68,-61.04 163.64,-58.98"/>
<polygon fill="#63b8ff" stroke="#63b8ff" points="165.06,-62.22 173.71,-56.1 163.13,-55.49 165.06,-62.22"/>
</a>
</g>
</g>
<!-- Node9 -->
<g id="Node000009" class="node">
<title>Node9</title>
<g id="a_Node000009"><a xlink:href="eldriver__mc3p_8c.html#ac542e614c6fdbb7ab8c67d4ad175f7f2" target="_top" xlink:title=" ">
<polygon fill="white" stroke="#666666" points="258,-19 166,-19 166,0 258,0 258,-19"/>
<text text-anchor="middle" x="212" y="-7" font-family="Helvetica,sans-Serif" font-size="10.00">mc3p_tim1_init</text>
</a>
</g>
</g>
<!-- Node1&#45;&gt;Node9 -->
<g id="edge8_Node000001_Node000009" class="edge">
<title>Node1&#45;&gt;Node9</title>
<g id="a_edge8_Node000001_Node000009"><a xlink:title=" ">
<path fill="none" stroke="#63b8ff" d="M63.37,-91.96C78.32,-76.41 110.16,-45.64 143,-28.5 147.32,-26.24 151.94,-24.23 156.67,-22.44"/>
<polygon fill="#63b8ff" stroke="#63b8ff" points="158.13,-25.63 166.44,-19.06 155.85,-19.02 158.13,-25.63"/>
</a>
</g>
</g>
<!-- Node4 -->
<g id="Node000004" class="node">
<title>Node4</title>
<g id="a_Node000004"><a xlink:href="eldriver__mc3p_8c.html#aa58bb4d04fd5a5a06abc1e9f53dd5ccd" target="_top" xlink:title=" ">
<polygon fill="white" stroke="#666666" points="431,-167 317,-167 317,-148 431,-148 431,-167"/>
<text text-anchor="middle" x="374" y="-155" font-family="Helvetica,sans-Serif" font-size="10.00">mc3p_adc_calibrate</text>
</a>
</g>
</g>
<!-- Node3&#45;&gt;Node4 -->
<g id="edge3_Node000003_Node000004" class="edge">
<title>Node3&#45;&gt;Node4</title>
<g id="a_edge3_Node000003_Node000004"><a xlink:title=" ">
<path fill="none" stroke="#63b8ff" d="M255.88,-157.5C271.36,-157.5 289.23,-157.5 306.27,-157.5"/>
<polygon fill="#63b8ff" stroke="#63b8ff" points="306.75,-161 316.75,-157.5 306.75,-154 306.75,-161"/>
</a>
</g>
</g>
<!-- Node5 -->
<g id="Node000005" class="node">
<title>Node5</title>
<g id="a_Node000005"><a xlink:href="eldriver__mc3p_8c.html#a2acacb6375cabeca2fbb0571a9b63407" target="_top" xlink:title=" ">
<polygon fill="white" stroke="#666666" points="586,-172.5 467,-172.5 467,-142.5 586,-142.5 586,-172.5"/>
<text text-anchor="start" x="475" y="-160.5" font-family="Helvetica,sans-Serif" font-size="10.00">adc1_Sample_Single</text>
<text text-anchor="middle" x="526.5" y="-149.5" font-family="Helvetica,sans-Serif" font-size="10.00">_Channel_Temporary</text>
</a>
</g>
</g>
<!-- Node4&#45;&gt;Node5 -->
<g id="edge4_Node000004_Node000005" class="edge">
<title>Node4&#45;&gt;Node5</title>
<g id="a_edge4_Node000004_Node000005"><a xlink:title=" ">
<path fill="none" stroke="#63b8ff" d="M431.04,-157.5C439.45,-157.5 448.2,-157.5 456.84,-157.5"/>
<polygon fill="#63b8ff" stroke="#63b8ff" points="456.9,-161 466.9,-157.5 456.9,-154 456.9,-161"/>
</a>
</g>
</g>
</g>
</svg>

<g id="navigator" transform="translate(0 0)" fill="#404254">
  <rect fill="#f2f5e9" fill-opacity="0.5" stroke="#606060" stroke-width=".5" x="0" y="0" width="60" height="60"/>
  <use id="zoomplus" xlink:href="#zoomPlus" x="17" y="9" onmousedown="handleZoom(evt,'in')"/>
  <use id="zoomminus" xlink:href="#zoomMin" x="42" y="9" onmousedown="handleZoom(evt,'out')"/>
  <use id="reset" xlink:href="#resetDef" x="30" y="36" onmousedown="handleReset()"/>
   <use id="arrowup" xlink:href="#arrowUp" x="0" y="0" onmousedown="handlePan(0,-1)"/>
  <use id="arrowright" xlink:href="#arrowRight" x="0" y="0" onmousedown="handlePan(1,0)"/>
  <use id="arrowdown" xlink:href="#arrowDown" x="0" y="0" onmousedown="handlePan(0,1)"/>
  <use id="arrowleft" xlink:href="#arrowLeft" x="0" y="0" onmousedown="handlePan(-1,0)"/>
</g>
<svg viewBox="0 0 15 15" width="100%" height="30px" preserveAspectRatio="xMaxYMin meet">
 <g id="arrow_out" transform="scale(0.3 0.3)">
  <a xlink:href="eldriver__mc3p_8c_af936864200e65317ca8fd7c6af2e95ba_cgraph_org.svg" target="_base">
   <rect id="button" ry="5" rx="5" y="6" x="6" height="38" width="38"
        fill="#f2f5e9" fill-opacity="0.5" stroke="#606060" stroke-width="1.0"/>
   <path id="arrow"
     d="M 11.500037,31.436501 C 11.940474,20.09759 22.043105,11.32322 32.158766,21.979434 L 37.068811,17.246167 C 37.068811,17.246167 37.088388,32 37.088388,32 L 22.160133,31.978069 C 22.160133,31.978069 26.997745,27.140456 26.997745,27.140456 C 18.528582,18.264221 13.291696,25.230495 11.500037,31.436501 z"
     style="fill:#404040;"/>
  </a>
 </g>
</svg>

<style type='text/css'>
<![CDATA[
[data-mouse-over-selected='false'] { opacity: 0.7; }
[data-mouse-over-selected='true']  { opacity: 1.0; }
]]>
</style>
<script type="application/ecmascript"><![CDATA[
document.addEventListener('DOMContentLoaded', (event) => {
  highlightEdges();
  highlightAdjacentNodes();
});
]]></script>
</svg>
