<?xml version="1.0" encoding="UTF-8" standalone="no"?>
<!DOCTYPE svg PUBLIC "-//W3C//DTD SVG 1.1//EN"
 "http://www.w3.org/Graphics/SVG/1.1/DTD/svg11.dtd">
<!-- Generated by graphviz version 2.43.0 (0)
 -->
<!-- Title: hall1_gpioRead Pages: 1 -->
<svg width="240pt" height="64pt"
 viewBox="0.00 0.00 240.00 64.00" xmlns="http://www.w3.org/2000/svg" xmlns:xlink="http://www.w3.org/1999/xlink">
<g id="graph0" class="graph" transform="scale(1 1) rotate(0) translate(4 60)">
<title>hall1_gpioRead</title>
<!-- Node1 -->
<g id="Node000001" class="node">
<title>Node1</title>
<g id="a_Node000001"><a xlink:title=" ">
<polygon fill="#999999" stroke="#666666" points="232,-37 140,-37 140,-18 232,-18 232,-37"/>
<text text-anchor="middle" x="186" y="-25" font-family="Helvetica,sans-Serif" font-size="10.00">hall1_gpioRead</text>
</a>
</g>
</g>
<!-- Node2 -->
<g id="Node000002" class="node">
<title>Node2</title>
<g id="a_Node000002"><a xlink:href="eldriver__hall_8c.html#a22da6aa36c47afcbd3acd86fa722f52c" target="_top" xlink:title="Initializes the Hall sensor interface.">
<polygon fill="white" stroke="#666666" points="104,-56 0,-56 0,-37 104,-37 104,-56"/>
<text text-anchor="middle" x="52" y="-44" font-family="Helvetica,sans-Serif" font-size="10.00">eldriver_hall1_init</text>
</a>
</g>
</g>
<!-- Node1&#45;&gt;Node2 -->
<g id="edge1_Node000001_Node000002" class="edge">
<title>Node1&#45;&gt;Node2</title>
<g id="a_edge1_Node000001_Node000002"><a xlink:title=" ">
<path fill="none" stroke="#63b8ff" d="M129.77,-35.45C121.3,-36.67 112.59,-37.92 104.21,-39.13"/>
<polygon fill="#63b8ff" stroke="#63b8ff" points="130.54,-38.87 139.94,-33.99 129.55,-31.95 130.54,-38.87"/>
</a>
</g>
</g>
<!-- Node3 -->
<g id="Node000003" class="node">
<title>Node3</title>
<g id="a_Node000003"><a xlink:href="eldriver__hall_8c.html#a38ad4725462bdc5e86c4ead4f04b9fc2" target="_top" xlink:title=" ">
<polygon fill="white" stroke="#666666" points="102.5,-19 1.5,-19 1.5,0 102.5,0 102.5,-19"/>
<text text-anchor="middle" x="52" y="-7" font-family="Helvetica,sans-Serif" font-size="10.00">TIM2_IRQHandler</text>
</a>
</g>
</g>
<!-- Node1&#45;&gt;Node3 -->
<g id="edge2_Node000001_Node000003" class="edge">
<title>Node1&#45;&gt;Node3</title>
<g id="a_edge2_Node000001_Node000003"><a xlink:title=" ">
<path fill="none" stroke="#63b8ff" d="M129.95,-19.99C120.96,-18.77 111.69,-17.5 102.83,-16.3"/>
<polygon fill="#63b8ff" stroke="#63b8ff" points="129.56,-23.47 139.94,-21.36 130.51,-16.54 129.56,-23.47"/>
</a>
</g>
</g>
</g>
</svg>
