<?xml version="1.0" encoding="UTF-8" standalone="no"?>
<!DOCTYPE svg PUBLIC "-//W3C//DTD SVG 1.1//EN"
 "http://www.w3.org/Graphics/SVG/1.1/DTD/svg11.dtd">
<!-- Generated by graphviz version 2.43.0 (0)
 -->
<!-- Title: eldriver_mc3p_write_trap Pages: 1 -->
<svg width="315pt" height="161pt"
 viewBox="0.00 0.00 315.00 160.50" xmlns="http://www.w3.org/2000/svg" xmlns:xlink="http://www.w3.org/1999/xlink">
<g id="graph0" class="graph" transform="scale(1 1) rotate(0) translate(4 156.5)">
<title>eldriver_mc3p_write_trap</title>
<!-- Node1 -->
<g id="Node000001" class="node">
<title>Node1</title>
<g id="a_Node000001"><a xlink:title="Set sector and duty for Trapezoidal control.">
<polygon fill="#999999" stroke="#666666" points="141,-77 0,-77 0,-58 141,-58 141,-77"/>
<text text-anchor="middle" x="70.5" y="-65" font-family="Helvetica,sans-Serif" font-size="10.00">eldriver_mc3p_write_trap</text>
</a>
</g>
</g>
<!-- Node2 -->
<g id="Node000002" class="node">
<title>Node2</title>
<g id="a_Node000002"><a xlink:href="eldriver__mc3p_8c.html#ae42bf26be7b633984af6858692359570" target="_top" xlink:title="Manually set PWM duty cycle for each phase in Q15.">
<polygon fill="white" stroke="#666666" points="300,-152.5 184,-152.5 184,-122.5 300,-122.5 300,-152.5"/>
<text text-anchor="start" x="192" y="-140.5" font-family="Helvetica,sans-Serif" font-size="10.00">eldriver_mc3p_write</text>
<text text-anchor="middle" x="242" y="-129.5" font-family="Helvetica,sans-Serif" font-size="10.00">_phase_duty</text>
</a>
</g>
</g>
<!-- Node1&#45;&gt;Node2 -->
<g id="edge1_Node000001_Node000002" class="edge">
<title>Node1&#45;&gt;Node2</title>
<g id="a_edge1_Node000001_Node000002"><a xlink:title=" ">
<path fill="none" stroke="#63b8ff" d="M92.78,-77.17C113.99,-86.71 147.55,-101.57 177,-113.5 181.38,-115.27 185.94,-117.07 190.52,-118.85"/>
<polygon fill="#63b8ff" stroke="#63b8ff" points="189.32,-122.14 199.91,-122.45 191.82,-115.6 189.32,-122.14"/>
</a>
</g>
</g>
<!-- Node3 -->
<g id="Node000003" class="node">
<title>Node3</title>
<g id="a_Node000003"><a xlink:href="eldriver__mc3p_8c.html#a624709df5a24e9de6cdf3912e590efa3" target="_top" xlink:title="Set specific phase states (U, V, W).">
<polygon fill="white" stroke="#666666" points="300,-104.5 184,-104.5 184,-74.5 300,-74.5 300,-104.5"/>
<text text-anchor="start" x="192" y="-92.5" font-family="Helvetica,sans-Serif" font-size="10.00">eldriver_mc3p_write</text>
<text text-anchor="middle" x="242" y="-81.5" font-family="Helvetica,sans-Serif" font-size="10.00">_phase_state</text>
</a>
</g>
</g>
<!-- Node1&#45;&gt;Node3 -->
<g id="edge2_Node000001_Node000003" class="edge">
<title>Node1&#45;&gt;Node3</title>
<g id="a_edge2_Node000001_Node000003"><a xlink:title=" ">
<path fill="none" stroke="#63b8ff" d="M141.42,-76.58C152.13,-77.97 163.17,-79.4 173.82,-80.78"/>
<polygon fill="#63b8ff" stroke="#63b8ff" points="173.52,-84.27 183.89,-82.09 174.42,-77.33 173.52,-84.27"/>
</a>
</g>
</g>
<!-- Node4 -->
<g id="Node000004" class="node">
<title>Node4</title>
<g id="a_Node000004"><a xlink:href="eldriver__mc3p_8c.html#a67c51fab30879ed9437d046eb9eb5037" target="_top" xlink:title=" ">
<polygon fill="white" stroke="#666666" points="291.5,-56 192.5,-56 192.5,-37 291.5,-37 291.5,-56"/>
<text text-anchor="middle" x="242" y="-44" font-family="Helvetica,sans-Serif" font-size="10.00">mc3p_adc_mode</text>
</a>
</g>
</g>
<!-- Node1&#45;&gt;Node4 -->
<g id="edge3_Node000001_Node000004" class="edge">
<title>Node1&#45;&gt;Node4</title>
<g id="a_edge3_Node000001_Node000004"><a xlink:title=" ">
<path fill="none" stroke="#63b8ff" d="M141.42,-58.84C154.95,-57.16 169,-55.42 182.13,-53.79"/>
<polygon fill="#63b8ff" stroke="#63b8ff" points="182.94,-57.22 192.44,-52.52 182.08,-50.27 182.94,-57.22"/>
</a>
</g>
</g>
<!-- Node5 -->
<g id="Node000005" class="node">
<title>Node5</title>
<g id="a_Node000005"><a xlink:href="eldriver__mc3p_8c.html#acb08648129be5f9af02805d22df08cc3" target="_top" xlink:title=" ">
<polygon fill="white" stroke="#666666" points="307,-19 177,-19 177,0 307,0 307,-19"/>
<text text-anchor="middle" x="242" y="-7" font-family="Helvetica,sans-Serif" font-size="10.00">mc3p_adc_trap_update</text>
</a>
</g>
</g>
<!-- Node1&#45;&gt;Node5 -->
<g id="edge4_Node000001_Node000005" class="edge">
<title>Node1&#45;&gt;Node5</title>
<g id="a_edge4_Node000001_Node000005"><a xlink:title=" ">
<path fill="none" stroke="#63b8ff" d="M96.07,-57.9C117.34,-49.71 149.02,-37.81 177,-28.5 183.58,-26.31 190.57,-24.11 197.43,-22.02"/>
<polygon fill="#63b8ff" stroke="#63b8ff" points="198.75,-25.28 207.32,-19.05 196.74,-18.57 198.75,-25.28"/>
</a>
</g>
</g>
</g>
</svg>
